# xmcd
#
# Track frame offsets:
#	150
#	12232
#	24967
#	42396
#	56019
#	67971
#	80665
#	92499
#	108658
#	120874
#	133584
#
# Disc length: 1942 seconds
#
# Revision: 1
# Processed by: cddbd v1.5.2PL0 Copyright (c) Steve Scherf et al.
# Submitted via: audiograbber 1.83.01
#
DISCID=8507940b
DTITLE=Jerri Arnold - An Old Country Record Speaks Jerri Arnold
DYEAR=2001
DGENRE=Country
TTITLE0=Love You Made A Fool Out Of Me
TTITLE1=Week End Window
TTITLE2=An Old Country Record Speaks
TTITLE3=You Don´t Have Very Far To Go
TTITLE4=A Burnt Child Fears The Fire
TTITLE5=Please Mr Editor
TTITLE6=Just Making Love
TTITLE7=He´ll Start Cheating Cheating On You
TTITLE8=Texarkana Walz
TTITLE9=Until I Can Make It Alone
TTITLE10=I´ll Bring The Sunshine To You Baby
EXTD=
EXTT0=
EXTT1=
EXTT2=
EXTT3=
EXTT4=
EXTT5=
EXTT6=
EXTT7=
EXTT8=
EXTT9=
EXTT10=
PLAYORDER=
